<svg width="42" height="42" viewBox="0 0 42 42" fill="none" xmlns="http://www.w3.org/2000/svg">
<g clip-path="url(#clip0_627_590)">
<rect width="42" height="42" rx="21" fill="#0B3C70"/>
<path d="M16.6245 17.3694L12.0494 21.9444C11.1185 22.8754 11.1185 24.3915 12.0494 25.3225C12.9804 26.2535 14.4965 26.2535 15.4275 25.3225L21.7049 19.0451C21.8645 18.8855 21.9975 18.6993 22.1039 18.4865L22.1305 18.4599C22.1305 18.4333 22.1571 18.4333 22.1571 18.4067C22.1571 18.3801 22.1837 18.3535 22.1837 18.3269C22.2103 18.3003 22.2103 18.2471 22.2369 18.2205C22.2369 18.1939 22.2635 18.1673 22.2635 18.1407C22.2635 18.1141 22.2901 18.0609 22.2901 18.0343C22.2901 18.0077 22.3167 17.9811 22.3167 17.9545C22.3167 17.9279 22.3433 17.8748 22.3433 17.8482C22.3433 17.8216 22.3433 17.795 22.3699 17.7684C22.3699 17.7152 22.3699 17.6886 22.3965 17.6354C22.3965 17.6088 22.3965 17.6088 22.3965 17.5822C22.3965 17.5024 22.3965 17.4226 22.3965 17.3428C22.3965 17.3162 22.3965 17.2896 22.3965 17.2896C22.3965 17.2364 22.3965 17.1832 22.3965 17.1034C22.3965 17.0768 22.3965 17.0502 22.3965 17.0502C22.3965 16.9704 22.3699 16.8906 22.3699 16.8108V16.7842C22.3433 16.731 22.3433 16.6512 22.3167 16.598C22.3167 16.5714 22.2901 16.5448 22.2901 16.5448C22.2635 16.4916 22.2369 16.4384 22.2103 16.3586C22.2103 16.332 22.2103 16.332 22.1837 16.3054C22.1571 16.2256 22.1039 16.1724 22.0773 16.0926C22.0773 16.066 22.0507 16.066 22.0507 16.0394C22.0241 15.9862 21.9709 15.933 21.9443 15.8798C21.9177 15.8532 21.9177 15.8532 21.8911 15.8266C21.8379 15.7734 21.7847 15.6936 21.7315 15.6404L15.4275 9.38963C14.4965 8.45866 12.9804 8.45866 12.0494 9.38963C11.1185 10.3206 11.1185 11.8368 12.0494 12.7677L16.6245 17.3694Z" fill="url(#paint0_linear_627_590)"/>
<path d="M23.886 17.3695L28.4611 12.7678C29.392 11.8369 29.392 10.3207 28.4611 9.38976C27.5301 8.45879 26.0139 8.45879 25.083 9.38976L18.8056 15.6671C18.3268 16.1459 18.0874 16.7577 18.0874 17.3695C18.0874 17.9813 18.3268 18.593 18.779 19.0718L25.0564 25.3492C25.9873 26.2802 27.5035 26.2802 28.4345 25.3492C29.3654 24.4183 29.3654 22.9021 28.4345 21.9711L23.886 17.3695Z" fill="url(#paint1_linear_627_590)"/>
<path d="M19.7365 31.3873C19.5503 31.3075 19.4173 31.1213 19.4173 30.8819V30.3499C19.4173 30.3499 19.4173 30.3499 19.4173 30.3233V30.1638C19.4173 29.7382 19.2843 29.3658 19.0982 29.02C18.5662 28.1688 17.5288 27.7964 16.5446 28.1422C15.6669 28.4614 15.1349 29.286 15.1349 30.1638V30.1904C15.1349 30.217 15.1349 30.2436 15.1349 30.2702C15.1881 31.4139 16.1191 32.3183 17.2628 32.3183C17.2894 32.3183 17.316 32.3183 17.3426 32.3183C17.5554 32.3183 17.7682 32.2651 17.981 32.1853C18.1938 32.1055 18.3268 31.8661 18.247 31.6267C18.1672 31.4139 17.9278 31.2809 17.6884 31.3607C17.0234 31.6001 16.2786 31.2543 16.0393 30.5893C16.0127 30.5095 15.9861 30.4297 15.9861 30.3499C15.9861 30.3499 15.9861 30.3499 15.9861 30.3233C15.9861 30.2967 15.9861 30.2701 15.9861 30.2435C15.9861 30.217 15.9861 30.217 15.9861 30.1904C15.9861 30.1638 15.9861 30.1638 15.9861 30.1372C15.9861 30.1106 15.9861 30.084 15.9861 30.0574V30.0308C15.9861 30.0042 15.9861 29.951 16.0127 29.9244C16.1457 29.3392 16.651 28.9136 17.2628 28.9136C17.981 28.9136 18.5396 29.4988 18.5396 30.1904V30.9085V30.9351C18.5396 31.4937 18.8588 31.9459 19.3109 32.1853C19.3109 32.1853 19.3109 32.1853 19.3375 32.1853C19.3907 32.2119 19.4439 32.2385 19.5237 32.2385C19.7631 32.2385 19.9493 32.0523 19.9493 31.8129C19.9759 31.6001 19.8695 31.4671 19.7365 31.3873Z" fill="white"/>
<path d="M29.4452 31.3873C29.259 31.3075 29.126 31.1213 29.126 30.8819V30.3499C29.126 30.3499 29.126 30.3499 29.126 30.3233V30.1638C29.126 29.7382 28.993 29.3658 28.8068 29.02C28.2748 28.1688 27.2374 27.7964 26.2533 28.1422C25.3755 28.4614 24.8435 29.286 24.8435 30.1638V30.1904C24.8435 30.217 24.8435 30.2436 24.8435 30.2702C24.8967 31.4139 25.8277 32.3183 26.9714 32.3183C26.998 32.3183 27.0246 32.3183 27.0512 32.3183C27.264 32.3183 27.4768 32.2651 27.6896 32.1853C27.9024 32.1055 28.0354 31.8661 27.9556 31.6267C27.8758 31.4139 27.6364 31.2809 27.397 31.3607C26.732 31.6001 25.9873 31.2543 25.7479 30.5893C25.7213 30.5095 25.6947 30.4297 25.6947 30.3499C25.6947 30.3499 25.6947 30.3499 25.6947 30.3233C25.6947 30.2967 25.6947 30.2701 25.6947 30.2435C25.6947 30.217 25.6947 30.217 25.6947 30.1904C25.6947 30.1638 25.6947 30.1638 25.6947 30.1372C25.6947 30.1106 25.6947 30.084 25.6947 30.0574V30.0308C25.6947 30.0042 25.6947 29.951 25.7213 29.9244C25.8543 29.3392 26.3597 28.9136 26.9714 28.9136C27.6896 28.9136 28.2482 29.4988 28.2482 30.1904V30.9085V30.9351C28.2482 31.4937 28.5674 31.9459 29.0196 32.1853C29.0196 32.1853 29.0196 32.1853 29.0462 32.1853C29.0994 32.2119 29.1526 32.2385 29.2324 32.2385C29.4718 32.2385 29.6579 32.0523 29.6579 31.8129C29.6845 31.6001 29.5781 31.4671 29.4452 31.3873Z" fill="white"/>
<path d="M20.6675 29.7382C20.4281 29.7382 20.2419 29.9244 20.2419 30.1637V31.8661C20.2419 32.1055 20.4281 32.2917 20.6675 32.2917C20.9069 32.2917 21.0931 32.1055 21.0931 31.8661V30.1637C21.0931 29.9244 20.9069 29.7382 20.6675 29.7382Z" fill="white"/>
<path d="M24.0721 28.0356C23.8327 28.0356 23.6465 28.2218 23.6465 28.4612V30.8551L20.96 28.1686C20.8004 28.009 20.5344 28.009 20.3482 28.1686C20.1886 28.3282 20.1886 28.5942 20.3482 28.7804L23.7795 32.1851C23.8593 32.2649 23.9657 32.3181 24.0721 32.3181C24.1253 32.3181 24.1785 32.3181 24.2317 32.2915C24.3913 32.2383 24.4977 32.0787 24.4977 31.8925V28.4612C24.5243 28.2218 24.3115 28.0356 24.0721 28.0356Z" fill="white"/>
<path d="M12.7675 30.5625C12.6611 30.4562 12.5813 30.3232 12.5813 30.1636C12.5813 30.004 12.6345 29.871 12.7409 29.7646L12.9537 29.5518L11.5174 28.142C11.4376 28.0622 11.3312 28.009 11.2248 28.009C11.1184 28.009 11.012 28.0622 10.9322 28.142C10.7726 28.3016 10.7726 28.5676 10.9322 28.7538L12.3419 30.1636L10.9322 31.5999C10.8524 31.6797 10.7992 31.7861 10.7992 31.8925C10.7992 31.9989 10.8524 32.1053 10.9322 32.1851C11.0918 32.3447 11.3578 32.3447 11.544 32.1851L12.9271 30.7753L12.7675 30.5625Z" fill="white"/>
<path d="M15.1615 31.5734L13.7517 30.1637L15.1615 28.7273C15.2413 28.6475 15.2945 28.5411 15.2945 28.4347C15.2945 28.3284 15.2413 28.222 15.1615 28.1422C15.0019 27.9826 14.7359 27.9826 14.5497 28.1422L12.8739 29.8179C12.8739 29.8179 12.8473 29.8445 12.8207 29.8711C12.7409 29.9509 12.6877 30.0573 12.6877 30.1637C12.6877 30.2701 12.7409 30.3765 12.8207 30.4563C12.8207 30.4563 12.8473 30.4829 12.8473 30.5095L14.5231 32.1586C14.6029 32.2384 14.7093 32.2916 14.8157 32.2916C14.9221 32.2916 15.0285 32.2384 15.1083 32.1586C15.3211 31.999 15.3211 31.733 15.1615 31.5734Z" fill="white"/>
</g>
<defs>
<linearGradient id="paint0_linear_627_590" x1="11.3468" y1="17.3611" x2="22.4078" y2="17.3611" gradientUnits="userSpaceOnUse">
<stop offset="0.00558659" stop-color="#E6007E"/>
<stop offset="1" stop-color="#82368C"/>
</linearGradient>
<linearGradient id="paint1_linear_627_590" x1="18.1" y1="17.3612" x2="29.162" y2="17.3612" gradientUnits="userSpaceOnUse">
<stop offset="0.00558659" stop-color="#4DD4EC"/>
<stop offset="1" stop-color="#1D71B8"/>
</linearGradient>
<clipPath id="clip0_627_590">
<rect width="42" height="42" rx="21" fill="white"/>
</clipPath>
</defs>
</svg>
